# xmcd
#
# Track frame offsets:
# 150
# 15763
# 32497
# 48804
# 63397
# 83002
# 99435
# 115921
# 131494
# 150230
# 162550
# 181529
# 200798
# 218127
#
# Disc length: 3164 seconds
#
#
# Revision: 0
# Processed by: cddbd v1.5.2PL0 Copyright (c) Steve Scherf et al.
# Submitted via: FreeRIP 2.95 
#
DISCID=a30c5a0e
DTITLE=Rebecca Linda Smith - Jesus' Grace
DYEAR=2006
DGENRE=Country
TTITLE0=Jesus' Grace
TTITLE1=Redeemed
TTITLE2=Jesus, King Of Glory
TTITLE3=I Need Forgiveness
TTITLE4=What About Jesus?
TTITLE5=Jesus, Lord Of My Life
TTITLE6=Cleansed By His Blood
TTITLE7=Victory Song
TTITLE8=Master, Mend Me
TTITLE9=Everlasting Love
TTITLE10=I Need Jesus' Blood
TTITLE11=A Crown Of Thorns
TTITLE12=Prisoner Of Love
TTITLE13=Do You Know Me
EXTD=
EXTT0=
EXTT1=
EXTT2=
EXTT3=
EXTT4=
EXTT5=
EXTT6=
EXTT7=
EXTT8=
EXTT9=
EXTT10=
EXTT11=
EXTT12=
EXTT13=
PLAYORDER=
